<mxfile host="app.diagrams.net" modified="2024-07-12T04:54:05.251Z" agent="Mozilla/5.0 (Windows NT 10.0; Win64; x64) AppleWebKit/537.36 (KHTML, like Gecko) Chrome/126.0.0.0 Safari/537.36" etag="xxi1c7jsd266QySqQ5Wi" version="24.6.4" type="github">
  <diagram id="prtHgNgQTEPvFCAcTncT" name="Page-1">
    <mxGraphModel dx="1323" dy="1934" grid="1" gridSize="10" guides="1" tooltips="1" connect="1" arrows="1" fold="1" page="1" pageScale="1" pageWidth="827" pageHeight="1169" math="0" shadow="0">
      <root>
        <mxCell id="0" />
        <mxCell id="1" parent="0" />
        <mxCell id="ArSv4i5Hj_Sf0OiJEY_E-2" value="" style="rounded=1;whiteSpace=wrap;html=1;fillColor=#dae8fc;strokeColor=#6c8ebf;" vertex="1" parent="1">
          <mxGeometry x="60" y="-570" width="1100" height="1020" as="geometry" />
        </mxCell>
        <object label="Vector Database" id="ArSv4i5Hj_Sf0OiJEY_E-3">
          <mxCell style="shape=cylinder3;whiteSpace=wrap;html=1;boundedLbl=1;backgroundOutline=1;size=15;" vertex="1" parent="1">
            <mxGeometry x="670" y="210" width="150" height="150" as="geometry" />
          </mxCell>
        </object>
        <mxCell id="ArSv4i5Hj_Sf0OiJEY_E-7" value="" style="shape=flexArrow;endArrow=classic;html=1;rounded=0;endWidth=17.22222222222222;endSize=13.35;width=6.666666666666667;" edge="1" parent="1">
          <mxGeometry width="50" height="50" relative="1" as="geometry">
            <mxPoint x="424.1" y="-433.12375657400446" as="sourcePoint" />
            <mxPoint x="199.99887640449455" y="-436.87" as="targetPoint" />
            <Array as="points" />
          </mxGeometry>
        </mxCell>
        <mxCell id="ArSv4i5Hj_Sf0OiJEY_E-11" value="Document-1" style="shape=document;whiteSpace=wrap;html=1;boundedLbl=1;" vertex="1" parent="1">
          <mxGeometry x="970" y="220" width="70" height="20" as="geometry" />
        </mxCell>
        <mxCell id="ArSv4i5Hj_Sf0OiJEY_E-13" value="Document-n" style="shape=document;whiteSpace=wrap;html=1;boundedLbl=1;" vertex="1" parent="1">
          <mxGeometry x="980" y="340" width="70" height="20" as="geometry" />
        </mxCell>
        <mxCell id="ArSv4i5Hj_Sf0OiJEY_E-17" style="edgeStyle=orthogonalEdgeStyle;rounded=0;orthogonalLoop=1;jettySize=auto;html=1;exitX=0.5;exitY=0;exitDx=0;exitDy=0;entryX=1;entryY=0.25;entryDx=0;entryDy=0;" edge="1" parent="1" source="ArSv4i5Hj_Sf0OiJEY_E-13" target="ArSv4i5Hj_Sf0OiJEY_E-13">
          <mxGeometry relative="1" as="geometry" />
        </mxCell>
        <mxCell id="ArSv4i5Hj_Sf0OiJEY_E-19" value="" style="endArrow=none;dashed=1;html=1;dashPattern=1 3;strokeWidth=2;rounded=0;exitX=0.429;exitY=0.5;exitDx=0;exitDy=0;exitPerimeter=0;" edge="1" parent="1">
          <mxGeometry width="50" height="50" relative="1" as="geometry">
            <mxPoint x="1004.1999999999999" y="290" as="sourcePoint" />
            <mxPoint x="1004.17" y="330" as="targetPoint" />
          </mxGeometry>
        </mxCell>
        <mxCell id="ArSv4i5Hj_Sf0OiJEY_E-20" value="Document-2" style="shape=document;whiteSpace=wrap;html=1;boundedLbl=1;" vertex="1" parent="1">
          <mxGeometry x="970" y="260" width="70" height="20" as="geometry" />
        </mxCell>
        <mxCell id="ArSv4i5Hj_Sf0OiJEY_E-22" value="" style="endArrow=classic;html=1;rounded=0;entryX=1;entryY=0.5;entryDx=0;entryDy=0;entryPerimeter=0;exitX=0;exitY=0.25;exitDx=0;exitDy=0;" edge="1" parent="1" source="ArSv4i5Hj_Sf0OiJEY_E-13" target="ArSv4i5Hj_Sf0OiJEY_E-3">
          <mxGeometry width="50" height="50" relative="1" as="geometry">
            <mxPoint x="710" y="322" as="sourcePoint" />
            <mxPoint x="650" y="345" as="targetPoint" />
          </mxGeometry>
        </mxCell>
        <mxCell id="ArSv4i5Hj_Sf0OiJEY_E-26" value="" style="endArrow=classic;html=1;rounded=0;exitX=0;exitY=0.5;exitDx=0;exitDy=0;exitPerimeter=0;entryX=1;entryY=0.5;entryDx=0;entryDy=0;entryPerimeter=0;" edge="1" parent="1" source="ArSv4i5Hj_Sf0OiJEY_E-11" target="ArSv4i5Hj_Sf0OiJEY_E-3">
          <mxGeometry width="50" height="50" relative="1" as="geometry">
            <mxPoint x="490" y="250" as="sourcePoint" />
            <mxPoint x="540" y="200" as="targetPoint" />
          </mxGeometry>
        </mxCell>
        <mxCell id="ArSv4i5Hj_Sf0OiJEY_E-27" value="" style="endArrow=classic;html=1;rounded=0;entryX=1;entryY=0.5;entryDx=0;entryDy=0;entryPerimeter=0;exitX=0;exitY=0.5;exitDx=0;exitDy=0;" edge="1" parent="1" source="ArSv4i5Hj_Sf0OiJEY_E-20" target="ArSv4i5Hj_Sf0OiJEY_E-3">
          <mxGeometry width="50" height="50" relative="1" as="geometry">
            <mxPoint x="490" y="250" as="sourcePoint" />
            <mxPoint x="540" y="200" as="targetPoint" />
          </mxGeometry>
        </mxCell>
        <mxCell id="ArSv4i5Hj_Sf0OiJEY_E-30" value="LLM" style="rounded=1;whiteSpace=wrap;html=1;" vertex="1" parent="1">
          <mxGeometry x="775" y="-510" width="190" height="150" as="geometry" />
        </mxCell>
        <mxCell id="ArSv4i5Hj_Sf0OiJEY_E-32" value="Actor" style="shape=umlActor;verticalLabelPosition=bottom;verticalAlign=top;html=1;outlineConnect=0;" vertex="1" parent="1">
          <mxGeometry x="105" y="-475" width="50" height="80" as="geometry" />
        </mxCell>
        <mxCell id="ArSv4i5Hj_Sf0OiJEY_E-34" value="prompt" style="swimlane;whiteSpace=wrap;html=1;" vertex="1" parent="1">
          <mxGeometry x="780" y="-240" width="180" height="130" as="geometry" />
        </mxCell>
        <mxCell id="ArSv4i5Hj_Sf0OiJEY_E-37" value="User Query" style="whiteSpace=wrap;html=1;shape=mxgraph.basic.oval_callout" vertex="1" parent="ArSv4i5Hj_Sf0OiJEY_E-34">
          <mxGeometry x="13" y="35" width="80" height="40" as="geometry" />
        </mxCell>
        <mxCell id="ArSv4i5Hj_Sf0OiJEY_E-38" value="Relevant Documents" style="shape=document;whiteSpace=wrap;html=1;boundedLbl=1;" vertex="1" parent="ArSv4i5Hj_Sf0OiJEY_E-34">
          <mxGeometry x="93" y="62.5" width="80" height="50" as="geometry" />
        </mxCell>
        <mxCell id="ArSv4i5Hj_Sf0OiJEY_E-54" value="" style="endArrow=classic;html=1;rounded=0;exitX=0.5;exitY=0;exitDx=0;exitDy=0;entryX=0.5;entryY=1;entryDx=0;entryDy=0;" edge="1" parent="1" source="ArSv4i5Hj_Sf0OiJEY_E-34" target="ArSv4i5Hj_Sf0OiJEY_E-30">
          <mxGeometry width="50" height="50" relative="1" as="geometry">
            <mxPoint x="700" y="-10" as="sourcePoint" />
            <mxPoint x="750" y="-60" as="targetPoint" />
          </mxGeometry>
        </mxCell>
        <mxCell id="ArSv4i5Hj_Sf0OiJEY_E-65" value="User Query" style="whiteSpace=wrap;html=1;shape=mxgraph.basic.oval_callout" vertex="1" parent="1">
          <mxGeometry x="180" y="-520" width="80" height="55" as="geometry" />
        </mxCell>
        <mxCell id="ArSv4i5Hj_Sf0OiJEY_E-70" value="" style="shape=flexArrow;endArrow=classic;html=1;rounded=0;endWidth=43.333333333333336;endSize=11.333333333333334;" edge="1" parent="1">
          <mxGeometry width="50" height="50" relative="1" as="geometry">
            <mxPoint x="775" y="-435.83" as="sourcePoint" />
            <mxPoint x="530" y="-435.83" as="targetPoint" />
            <Array as="points" />
          </mxGeometry>
        </mxCell>
        <mxCell id="ArSv4i5Hj_Sf0OiJEY_E-69" value="LLM Response" style="rounded=0;whiteSpace=wrap;html=1;" vertex="1" parent="1">
          <mxGeometry x="420" y="-465" width="150" height="60" as="geometry" />
        </mxCell>
        <mxCell id="ArSv4i5Hj_Sf0OiJEY_E-99" style="edgeStyle=orthogonalEdgeStyle;rounded=0;orthogonalLoop=1;jettySize=auto;html=1;exitX=0.5;exitY=1;exitDx=0;exitDy=0;entryX=0;entryY=0.5;entryDx=0;entryDy=0;" edge="1" parent="1" source="ArSv4i5Hj_Sf0OiJEY_E-77" target="ArSv4i5Hj_Sf0OiJEY_E-84">
          <mxGeometry relative="1" as="geometry" />
        </mxCell>
        <mxCell id="ArSv4i5Hj_Sf0OiJEY_E-77" value="&lt;font style=&quot;font-size: 18px;&quot;&gt;Generate Embeding&lt;/font&gt;" style="shape=process;whiteSpace=wrap;html=1;backgroundOutline=1;" vertex="1" parent="1">
          <mxGeometry x="105" y="-20" width="120" height="60" as="geometry" />
        </mxCell>
        <mxCell id="ArSv4i5Hj_Sf0OiJEY_E-96" style="edgeStyle=orthogonalEdgeStyle;rounded=0;orthogonalLoop=1;jettySize=auto;html=1;exitX=0.75;exitY=0;exitDx=0;exitDy=0;entryX=0.75;entryY=1;entryDx=0;entryDy=0;" edge="1" parent="1" source="ArSv4i5Hj_Sf0OiJEY_E-78" target="ArSv4i5Hj_Sf0OiJEY_E-85">
          <mxGeometry relative="1" as="geometry" />
        </mxCell>
        <mxCell id="ArSv4i5Hj_Sf0OiJEY_E-78" value="&lt;font style=&quot;font-size: 15px;&quot;&gt;KNN Search,&lt;/font&gt;&lt;div style=&quot;font-size: 15px;&quot;&gt;&lt;font style=&quot;font-size: 15px;&quot;&gt;Match Query&lt;/font&gt;&lt;/div&gt;" style="shape=process;whiteSpace=wrap;html=1;backgroundOutline=1;" vertex="1" parent="1">
          <mxGeometry x="840" y="20" width="120" height="60" as="geometry" />
        </mxCell>
        <mxCell id="ArSv4i5Hj_Sf0OiJEY_E-97" style="edgeStyle=orthogonalEdgeStyle;rounded=0;orthogonalLoop=1;jettySize=auto;html=1;exitX=0.25;exitY=0;exitDx=0;exitDy=0;entryX=0;entryY=0.5;entryDx=0;entryDy=0;" edge="1" parent="1" source="ArSv4i5Hj_Sf0OiJEY_E-84" target="ArSv4i5Hj_Sf0OiJEY_E-78">
          <mxGeometry relative="1" as="geometry" />
        </mxCell>
        <mxCell id="ArSv4i5Hj_Sf0OiJEY_E-84" value="" style="rounded=1;whiteSpace=wrap;html=1;opacity=50;" vertex="1" parent="1">
          <mxGeometry x="580" y="160" width="550" height="220" as="geometry" />
        </mxCell>
        <mxCell id="ArSv4i5Hj_Sf0OiJEY_E-90" style="edgeStyle=orthogonalEdgeStyle;rounded=0;orthogonalLoop=1;jettySize=auto;html=1;exitX=0.5;exitY=0;exitDx=0;exitDy=0;entryX=0.75;entryY=1;entryDx=0;entryDy=0;" edge="1" parent="1" source="ArSv4i5Hj_Sf0OiJEY_E-85" target="ArSv4i5Hj_Sf0OiJEY_E-34">
          <mxGeometry relative="1" as="geometry" />
        </mxCell>
        <mxCell id="ArSv4i5Hj_Sf0OiJEY_E-85" value="Retrieval" style="shape=process;whiteSpace=wrap;html=1;backgroundOutline=1;" vertex="1" parent="1">
          <mxGeometry x="840" y="-80" width="120" height="60" as="geometry" />
        </mxCell>
      </root>
    </mxGraphModel>
  </diagram>
</mxfile>
